<svg width="31" height="40" viewBox="0 0 31 40" fill="none" xmlns="http://www.w3.org/2000/svg">
<path d="M15.5135 19.15C16.3567 19.15 17.0783 18.8417 17.6783 18.225C18.2783 17.6083 18.5783 16.8667 18.5783 16C18.5783 15.1333 18.2783 14.3917 17.6783 13.775C17.0783 13.1583 16.3567 12.85 15.5135 12.85C14.6702 12.85 13.9486 13.1583 13.3486 13.775C12.7486 14.3917 12.4486 15.1333 12.4486 16C12.4486 16.8667 12.7486 17.6083 13.3486 18.225C13.9486 18.8417 14.6702 19.15 15.5135 19.15ZM15.5135 36.6C19.7621 32.7 22.9729 28.9917 25.1459 25.475C27.3189 21.9583 28.4053 18.9333 28.4053 16.4C28.4053 12.4 27.1648 9.125 24.6837 6.575C22.2026 4.025 19.1459 2.75 15.5135 2.75C11.881 2.75 8.82426 4.025 6.34318 6.575C3.8621 9.125 2.62156 12.4 2.62156 16.4C2.62156 18.9333 3.72426 21.9583 5.92967 25.475C8.13508 28.9917 11.3297 32.7 15.5135 36.6ZM15.5621 39.05C15.3351 39.05 15.1324 39.0167 14.954 38.95C14.7756 38.8833 14.6216 38.7833 14.4918 38.65C9.7567 34.35 6.22967 30.3417 3.91075 26.625C1.59183 22.9083 0.432373 19.5 0.432373 16.4C0.432373 11.5667 1.94859 7.70833 4.98102 4.825C8.01345 1.94167 11.5243 0.5 15.5135 0.5C19.5026 0.5 23.0135 1.94167 26.0459 4.825C29.0783 7.70833 30.5945 11.5667 30.5945 16.4C30.5945 19.5 29.4351 22.9083 27.1162 26.625C24.7972 30.3417 21.2702 34.35 16.5351 38.65C16.4053 38.7833 16.2594 38.8833 16.0972 38.95C15.9351 39.0167 15.7567 39.05 15.5621 39.05Z" fill="#244454"/>
</svg>
