<svg width="40" height="40" viewBox="0 0 40 40" fill="none" xmlns="http://www.w3.org/2000/svg">
<path d="M35.7143 0H4.28571C3.14907 0 2.05898 0.451529 1.25526 1.25526C0.451529 2.05898 0 3.14907 0 4.28571L0 35.7143C0 36.8509 0.451529 37.941 1.25526 38.7447C2.05898 39.5485 3.14907 40 4.28571 40H16.5402V26.4009H10.9152V20H16.5402V15.1214C16.5402 9.57232 19.8438 6.50714 24.9036 6.50714C27.3268 6.50714 29.8607 6.93929 29.8607 6.93929V12.3857H27.0688C24.3179 12.3857 23.4598 14.0929 23.4598 15.8438V20H29.6009L28.6188 26.4009H23.4598V40H35.7143C36.8509 40 37.941 39.5485 38.7447 38.7447C39.5485 37.941 40 36.8509 40 35.7143V4.28571C40 3.14907 39.5485 2.05898 38.7447 1.25526C37.941 0.451529 36.8509 0 35.7143 0Z" fill="#6AACC4"/>
</svg>
