<svg width="1440" height="480" viewBox="0 0 1440 480" fill="none" xmlns="http://www.w3.org/2000/svg">
<path d="M-1 36.5398V480H1440V36.5398C1440 36.5398 1411.17 0 1375 0C1338.83 0 1345.17 36.5398 1309 36.5398C1272.83 36.5398 1280.17 0 1244 0C1207.83 0 1214.17 36.5398 1178 36.5398C1141.83 36.5398 1149.17 0 1113 0C1076.83 0 1083.17 36.5398 1047 36.5398C1010.83 36.5398 1018.17 0 982 0C945.825 0 949.175 36.5398 913 36.5398C876.825 36.5398 887.175 0 851 0C814.825 0 821.175 36.5398 785 36.5398C748.825 36.5398 756.175 0 720 0C683.825 0 690.175 36.5398 654 36.5398C617.825 36.5398 625.175 0 589 0C552.825 0 559.175 36.5398 523 36.5398C486.825 36.5398 494.175 0 458 0C421.825 0 428.175 36.5398 392 36.5398C355.825 36.5398 363.175 0 327 0C290.825 0 297.175 36.5398 261 36.5398C224.825 36.5398 232.175 0 196 0C159.825 0 166.175 36.5398 130 36.5398C93.8253 36.5398 101.175 0 65 0C28.8253 0 -1 36.5398 -1 36.5398Z" fill="#591600"/>
</svg>
