<svg width="35" height="35" viewBox="0 0 35 35" fill="none" xmlns="http://www.w3.org/2000/svg">
<path d="M31.25 0H3.75C1.67969 0 0 1.67969 0 3.75V31.25C0 33.3203 1.67969 35 3.75 35H31.25C33.3203 35 35 33.3203 35 31.25V3.75C35 1.67969 33.3203 0 31.25 0ZM21.6641 29.9766C21.0078 30.0938 20.7656 29.6875 20.7656 29.3516C20.7656 28.9297 20.7812 26.7734 20.7812 25.0312C20.7812 23.8125 20.375 23.0391 19.8984 22.6328C22.7891 22.3125 25.8359 21.9141 25.8359 16.9219C25.8359 15.5 25.3281 14.7891 24.5 13.875C24.6328 13.5391 25.0781 12.1562 24.3672 10.3594C23.2812 10.0234 20.7969 11.7578 20.7969 11.7578C19.7656 11.4688 18.6484 11.3203 17.5469 11.3203C16.4453 11.3203 15.3281 11.4688 14.2969 11.7578C14.2969 11.7578 11.8125 10.0234 10.7266 10.3594C10.0156 12.1484 10.4531 13.5312 10.5938 13.875C9.76562 14.7891 9.375 15.5 9.375 16.9219C9.375 21.8906 12.2891 22.3125 15.1797 22.6328C14.8047 22.9688 14.4688 23.5469 14.3516 24.375C13.6094 24.7109 11.7109 25.2891 10.5781 23.2891C9.86719 22.0547 8.58594 21.9531 8.58594 21.9531C7.32031 21.9375 8.5 22.75 8.5 22.75C9.34375 23.1406 9.9375 24.6406 9.9375 24.6406C10.6953 26.9609 14.3203 26.1797 14.3203 26.1797C14.3203 27.2656 14.3359 29.0313 14.3359 29.3516C14.3359 29.6875 14.1016 30.0938 13.4375 29.9766C8.28125 28.25 4.67188 23.3438 4.67188 17.6094C4.67188 10.4375 10.1562 4.99219 17.3281 4.99219C24.5 4.99219 30.3125 10.4375 30.3125 17.6094C30.3203 23.3438 26.8203 28.2578 21.6641 29.9766ZM14 25.2031C13.8516 25.2344 13.7109 25.1719 13.6953 25.0703C13.6797 24.9531 13.7812 24.8516 13.9297 24.8203C14.0781 24.8047 14.2188 24.8672 14.2344 24.9688C14.2578 25.0703 14.1562 25.1719 14 25.2031ZM13.2578 25.1328C13.2578 25.2344 13.1406 25.3203 12.9844 25.3203C12.8125 25.3359 12.6953 25.25 12.6953 25.1328C12.6953 25.0313 12.8125 24.9453 12.9688 24.9453C13.1172 24.9297 13.2578 25.0156 13.2578 25.1328ZM12.1875 25.0469C12.1562 25.1484 12 25.1953 11.8672 25.1484C11.7188 25.1172 11.6172 25 11.6484 24.8984C11.6797 24.7969 11.8359 24.75 11.9688 24.7812C12.125 24.8281 12.2266 24.9453 12.1875 25.0469ZM11.2266 24.625C11.1562 24.7109 11.0078 24.6953 10.8906 24.5781C10.7734 24.4766 10.7422 24.3281 10.8203 24.2578C10.8906 24.1719 11.0391 24.1875 11.1562 24.3047C11.2578 24.4062 11.2969 24.5625 11.2266 24.625ZM10.5156 23.9141C10.4453 23.9609 10.3125 23.9141 10.2266 23.7969C10.1406 23.6797 10.1406 23.5469 10.2266 23.4922C10.3125 23.4219 10.4453 23.4766 10.5156 23.5938C10.6016 23.7109 10.6016 23.8516 10.5156 23.9141ZM10.0078 23.1562C9.9375 23.2266 9.82031 23.1875 9.73438 23.1094C9.64844 23.0078 9.63281 22.8906 9.70312 22.8359C9.77344 22.7656 9.89062 22.8047 9.97656 22.8828C10.0625 22.9844 10.0781 23.1016 10.0078 23.1562ZM9.48438 22.5781C9.45312 22.6484 9.35156 22.6641 9.26562 22.6094C9.16406 22.5625 9.11719 22.4766 9.14844 22.4062C9.17969 22.3594 9.26562 22.3359 9.36719 22.375C9.46875 22.4297 9.51562 22.5156 9.48438 22.5781Z" fill="#E08298"/>
</svg>
