<svg width="40" height="40" viewBox="0 0 40 40" fill="none" xmlns="http://www.w3.org/2000/svg">
<path d="M20 15.2375C19.0581 15.2379 18.1375 15.5175 17.3546 16.041C16.5716 16.5645 15.9615 17.3084 15.6013 18.1787C15.2411 19.049 15.147 20.0065 15.331 20.9302C15.515 21.8539 15.9687 22.7024 16.6348 23.3682C17.3009 24.0341 18.1495 24.4875 19.0733 24.6711C19.9971 24.8547 20.9546 24.7603 21.8247 24.3998C22.6949 24.0393 23.4386 23.4289 23.9618 22.6457C24.485 21.8626 24.7643 20.9419 24.7643 20C24.7633 18.7369 24.261 17.5258 23.3677 16.6328C22.4744 15.7398 21.2631 15.238 20 15.2375ZM31.1348 11.5768C30.8924 10.9624 30.5263 10.4043 30.0592 9.93724C29.5921 9.47017 29.0341 9.10406 28.4196 8.86161C26.5446 8.12143 22.0804 8.2875 20 8.2875C17.9196 8.2875 13.4598 8.11518 11.5795 8.86161C10.965 9.10406 10.407 9.47017 9.93992 9.93724C9.47285 10.4043 9.10674 10.9624 8.86429 11.5768C8.125 13.4518 8.29018 17.9205 8.29018 19.9991C8.29018 22.0777 8.125 26.5411 8.86786 28.4223C9.11031 29.0367 9.47642 29.5948 9.94349 30.0619C10.4106 30.5289 10.9686 30.8951 11.583 31.1375C13.458 31.8777 17.9223 31.7116 20.0036 31.7116C22.0848 31.7116 26.5429 31.8839 28.4232 31.1375C29.0376 30.8951 29.5957 30.5289 30.0628 30.0619C30.5298 29.5948 30.8959 29.0367 31.1384 28.4223C31.8839 26.5473 31.7125 22.0786 31.7125 20C31.7125 17.9214 31.8839 13.4589 31.1384 11.5777L31.1348 11.5768ZM20 27.3214C18.552 27.3214 17.1364 26.892 15.9324 26.0875C14.7284 25.2831 13.79 24.1396 13.2359 22.8018C12.6817 21.464 12.5368 19.9919 12.8193 18.5717C13.1018 17.1514 13.799 15.8469 14.823 14.823C15.8469 13.799 17.1514 13.1018 18.5717 12.8193C19.9919 12.5368 21.464 12.6817 22.8018 13.2359C24.1396 13.79 25.2831 14.7284 26.0875 15.9324C26.892 17.1364 27.3214 18.552 27.3214 20C27.3226 20.9618 27.134 21.9144 26.7665 22.8032C26.399 23.692 25.8597 24.4996 25.1797 25.1797C24.4996 25.8597 23.692 26.399 22.8032 26.7665C21.9144 27.134 20.9618 27.3226 20 27.3214ZM27.6232 14.0804C27.2852 14.0805 26.9547 13.9805 26.6735 13.7928C26.3924 13.6051 26.1732 13.3383 26.0437 13.026C25.9143 12.7138 25.8803 12.3701 25.9461 12.0386C26.012 11.707 26.1746 11.4024 26.4136 11.1633C26.6526 10.9243 26.9571 10.7614 27.2886 10.6954C27.6201 10.6294 27.9638 10.6632 28.2761 10.7925C28.5884 10.9218 28.8554 11.1409 29.0432 11.4219C29.231 11.703 29.3313 12.0334 29.3313 12.3714C29.3322 12.5959 29.2888 12.8184 29.2036 13.026C29.1184 13.2337 28.993 13.4225 28.8346 13.5816C28.6763 13.7407 28.488 13.867 28.2808 13.9532C28.0735 14.0394 27.8513 14.0838 27.6268 14.0839L27.6232 14.0804ZM35.7143 0H4.28571C3.14907 0 2.05898 0.451529 1.25526 1.25526C0.451529 2.05898 0 3.14907 0 4.28571L0 35.7143C0 36.8509 0.451529 37.941 1.25526 38.7447C2.05898 39.5485 3.14907 40 4.28571 40H35.7143C36.8509 40 37.941 39.5485 38.7447 38.7447C39.5485 37.941 40 36.8509 40 35.7143V4.28571C40 3.14907 39.5485 2.05898 38.7447 1.25526C37.941 0.451529 36.8509 0 35.7143 0ZM34.1857 25.8929C34.0705 28.1813 33.5482 30.2089 31.8777 31.875C30.2071 33.5411 28.1813 34.0741 25.8955 34.183C23.5375 34.3161 16.4679 34.3161 14.1098 34.183C11.8214 34.0679 9.80089 33.5446 8.12768 31.875C6.45446 30.2054 5.92857 28.1768 5.81964 25.8929C5.68661 23.5339 5.68661 16.4634 5.81964 14.1071C5.93482 11.8188 6.45089 9.79107 8.12768 8.125C9.80446 6.45893 11.8304 5.93214 14.1098 5.82321C16.4679 5.69018 23.5375 5.69018 25.8955 5.82321C28.1839 5.93839 30.2107 6.46161 31.8777 8.13125C33.5446 9.80089 34.0768 11.8295 34.1857 14.1179C34.3188 16.4679 34.3188 23.5321 34.1857 25.8929Z" fill="#E08298"/>
</svg>
