<svg width="47" height="48" viewBox="0 0 47 48" fill="none" xmlns="http://www.w3.org/2000/svg">
<path d="M23.5135 23.15C24.3567 23.15 25.0783 22.8417 25.6783 22.225C26.2783 21.6083 26.5783 20.8667 26.5783 20C26.5783 19.1333 26.2783 18.3917 25.6783 17.775C25.0783 17.1583 24.3567 16.85 23.5135 16.85C22.6702 16.85 21.9486 17.1583 21.3486 17.775C20.7486 18.3917 20.4486 19.1333 20.4486 20C20.4486 20.8667 20.7486 21.6083 21.3486 22.225C21.9486 22.8417 22.6702 23.15 23.5135 23.15ZM23.5135 40.6C27.7621 36.7 30.9729 32.9917 33.1459 29.475C35.3189 25.9583 36.4053 22.9333 36.4053 20.4C36.4053 16.4 35.1648 13.125 32.6837 10.575C30.2026 8.025 27.1459 6.75 23.5135 6.75C19.881 6.75 16.8243 8.025 14.3432 10.575C11.8621 13.125 10.6216 16.4 10.6216 20.4C10.6216 22.9333 11.7243 25.9583 13.9297 29.475C16.1351 32.9917 19.3297 36.7 23.5135 40.6V40.6ZM23.5621 43.05C23.3351 43.05 23.1324 43.0167 22.954 42.95C22.7756 42.8833 22.6216 42.7833 22.4918 42.65C17.7567 38.35 14.2297 34.3417 11.9108 30.625C9.59183 26.9083 8.43237 23.5 8.43237 20.4C8.43237 15.5667 9.94859 11.7083 12.981 8.825C16.0135 5.94167 19.5243 4.5 23.5135 4.5C27.5026 4.5 31.0135 5.94167 34.0459 8.825C37.0783 11.7083 38.5945 15.5667 38.5945 20.4C38.5945 23.5 37.4351 26.9083 35.1162 30.625C32.7972 34.3417 29.2702 38.35 24.5351 42.65C24.4053 42.7833 24.2594 42.8833 24.0972 42.95C23.9351 43.0167 23.7567 43.05 23.5621 43.05Z" fill="#244454"/>
</svg>
