<svg width="177" height="27" viewBox="0 0 177 27" fill="none" xmlns="http://www.w3.org/2000/svg">
<path d="M5.52401 0.872004V26H0.484009V0.872004H5.52401Z" fill="#296D87"/>
<path d="M9.20754 16.028C9.20754 13.964 9.62754 12.164 10.4675 10.628C11.3075 9.068 12.4715 7.868 13.9595 7.028C15.4475 6.164 17.1515 5.732 19.0715 5.732C21.5435 5.732 23.5835 6.356 25.1915 7.604C26.8235 8.828 27.9155 10.556 28.4675 12.788H23.0315C22.7435 11.924 22.2515 11.252 21.5555 10.772C20.8835 10.268 20.0435 10.016 19.0355 10.016C17.5955 10.016 16.4555 10.544 15.6155 11.6C14.7755 12.632 14.3555 14.108 14.3555 16.028C14.3555 17.924 14.7755 19.4 15.6155 20.456C16.4555 21.488 17.5955 22.004 19.0355 22.004C21.0755 22.004 22.4075 21.092 23.0315 19.268H28.4675C27.9155 21.428 26.8235 23.144 25.1915 24.416C23.5595 25.688 21.5195 26.324 19.0715 26.324C17.1515 26.324 15.4475 25.904 13.9595 25.064C12.4715 24.2 11.3075 23 10.4675 21.464C9.62754 19.904 9.20754 18.092 9.20754 16.028Z" fill="#296D87"/>
<path d="M50.6998 15.596C50.6998 16.316 50.6518 16.964 50.5558 17.54H35.9758C36.0958 18.98 36.5998 20.108 37.4878 20.924C38.3758 21.74 39.4678 22.148 40.7638 22.148C42.6358 22.148 43.9678 21.344 44.7598 19.736H50.1958C49.6198 21.656 48.5158 23.24 46.8838 24.488C45.2518 25.712 43.2478 26.324 40.8718 26.324C38.9518 26.324 37.2238 25.904 35.6878 25.064C34.1758 24.2 32.9878 22.988 32.1238 21.428C31.2838 19.868 30.8638 18.068 30.8638 16.028C30.8638 13.964 31.2838 12.152 32.1238 10.592C32.9638 9.032 34.1398 7.832 35.6518 6.992C37.1638 6.152 38.9038 5.732 40.8718 5.732C42.7678 5.732 44.4598 6.14 45.9478 6.956C47.4598 7.772 48.6238 8.936 49.4398 10.448C50.2798 11.936 50.6998 13.652 50.6998 15.596ZM45.4798 14.156C45.4558 12.86 44.9878 11.828 44.0758 11.06C43.1638 10.268 42.0478 9.872 40.7278 9.872C39.4798 9.872 38.4238 10.256 37.5598 11.024C36.7198 11.768 36.2038 12.812 36.0118 14.156H45.4798Z" fill="#296D87"/>
<path d="M53.1545 13.4C53.1545 10.928 53.7065 8.72 54.8105 6.776C55.9385 4.808 57.4625 3.284 59.3825 2.204C61.3265 1.1 63.4985 0.548004 65.8985 0.548004C68.7065 0.548004 71.1665 1.268 73.2785 2.708C75.3905 4.148 76.8665 6.14 77.7065 8.684H71.9105C71.3345 7.484 70.5185 6.584 69.4625 5.984C68.4305 5.384 67.2305 5.084 65.8625 5.084C64.3985 5.084 63.0905 5.432 61.9385 6.128C60.8105 6.8 59.9225 7.76 59.2745 9.008C58.6505 10.256 58.3385 11.72 58.3385 13.4C58.3385 15.056 58.6505 16.52 59.2745 17.792C59.9225 19.04 60.8105 20.012 61.9385 20.708C63.0905 21.38 64.3985 21.716 65.8625 21.716C67.2305 21.716 68.4305 21.416 69.4625 20.816C70.5185 20.192 71.3345 19.28 71.9105 18.08H77.7065C76.8665 20.648 75.3905 22.652 73.2785 24.092C71.1905 25.508 68.7305 26.216 65.8985 26.216C63.4985 26.216 61.3265 25.676 59.3825 24.596C57.4625 23.492 55.9385 21.968 54.8105 20.024C53.7065 18.08 53.1545 15.872 53.1545 13.4Z" fill="#A33750"/>
<path d="M87.0514 9.152C87.6994 8.096 88.5394 7.268 89.5714 6.668C90.6274 6.068 91.8274 5.768 93.1714 5.768V11.06H91.8394C90.2554 11.06 89.0553 11.432 88.2393 12.176C87.4473 12.92 87.0514 14.216 87.0514 16.064V26H82.0114V6.056H87.0514V9.152Z" fill="#A33750"/>
<path d="M115.106 15.596C115.106 16.316 115.058 16.964 114.962 17.54H100.382C100.502 18.98 101.006 20.108 101.894 20.924C102.782 21.74 103.874 22.148 105.17 22.148C107.042 22.148 108.374 21.344 109.166 19.736H114.602C114.026 21.656 112.922 23.24 111.29 24.488C109.658 25.712 107.654 26.324 105.278 26.324C103.358 26.324 101.63 25.904 100.094 25.064C98.582 24.2 97.394 22.988 96.53 21.428C95.69 19.868 95.27 18.068 95.27 16.028C95.27 13.964 95.69 12.152 96.53 10.592C97.37 9.032 98.546 7.832 100.058 6.992C101.57 6.152 103.31 5.732 105.278 5.732C107.174 5.732 108.866 6.14 110.354 6.956C111.866 7.772 113.03 8.936 113.846 10.448C114.686 11.936 115.106 13.652 115.106 15.596ZM109.886 14.156C109.862 12.86 109.394 11.828 108.482 11.06C107.57 10.268 106.454 9.872 105.134 9.872C103.886 9.872 102.83 10.256 101.966 11.024C101.126 11.768 100.61 12.812 100.418 14.156H109.886Z" fill="#A33750"/>
<path d="M117.489 15.956C117.489 13.94 117.885 12.152 118.677 10.592C119.493 9.032 120.585 7.832 121.953 6.992C123.345 6.152 124.893 5.732 126.597 5.732C128.085 5.732 129.381 6.032 130.485 6.632C131.613 7.232 132.513 7.988 133.185 8.9V6.056H138.261V26H133.185V23.084C132.537 24.02 131.637 24.8 130.485 25.424C129.357 26.024 128.049 26.324 126.561 26.324C124.881 26.324 123.345 25.892 121.953 25.028C120.585 24.164 119.493 22.952 118.677 21.392C117.885 19.808 117.489 17.996 117.489 15.956ZM133.185 16.028C133.185 14.804 132.945 13.76 132.465 12.896C131.985 12.008 131.337 11.336 130.521 10.88C129.705 10.4 128.829 10.16 127.893 10.16C126.957 10.16 126.093 10.388 125.301 10.844C124.509 11.3 123.861 11.972 123.357 12.86C122.877 13.724 122.637 14.756 122.637 15.956C122.637 17.156 122.877 18.212 123.357 19.124C123.861 20.012 124.509 20.696 125.301 21.176C126.117 21.656 126.981 21.896 127.893 21.896C128.829 21.896 129.705 21.668 130.521 21.212C131.337 20.732 131.985 20.06 132.465 19.196C132.945 18.308 133.185 17.252 133.185 16.028Z" fill="#A33750"/>
<path d="M167.951 5.768C170.399 5.768 172.367 6.524 173.855 8.036C175.367 9.524 176.123 11.612 176.123 14.3V26H171.083V14.984C171.083 13.424 170.687 12.236 169.895 11.42C169.103 10.58 168.023 10.16 166.655 10.16C165.287 10.16 164.195 10.58 163.379 11.42C162.587 12.236 162.191 13.424 162.191 14.984V26H157.151V14.984C157.151 13.424 156.755 12.236 155.963 11.42C155.171 10.58 154.091 10.16 152.723 10.16C151.331 10.16 150.227 10.58 149.411 11.42C148.619 12.236 148.223 13.424 148.223 14.984V26H143.183V6.056H148.223V8.468C148.871 7.628 149.699 6.968 150.707 6.488C151.739 6.008 152.867 5.768 154.091 5.768C155.651 5.768 157.043 6.104 158.267 6.776C159.491 7.424 160.439 8.36 161.111 9.584C161.759 8.432 162.695 7.508 163.919 6.812C165.167 6.116 166.511 5.768 167.951 5.768Z" fill="#A33750"/>
</svg>
