<svg width="42" height="28" viewBox="0 0 42 28" fill="none" xmlns="http://www.w3.org/2000/svg">
<path d="M6 3C6 1.34315 7.34315 0 9 0H39C40.6569 0 42 1.34315 42 3C42 4.65685 40.6569 6 39 6H9C7.34314 6 6 4.65685 6 3Z" fill="#A33750"/>
<path d="M0 25C0 23.3431 1.34315 22 3 22H39C40.6569 22 42 23.3431 42 25C42 26.6569 40.6569 28 39 28H3C1.34315 28 0 26.6569 0 25Z" fill="#A33750"/>
<path d="M16 14C16 12.3431 17.3431 11 19 11H39C40.6569 11 42 12.3431 42 14C42 15.6569 40.6569 17 39 17H19C17.3431 17 16 15.6569 16 14Z" fill="#A33750"/>
</svg>
