<svg width="38" height="38" viewBox="0 0 38 38" fill="none" xmlns="http://www.w3.org/2000/svg">
<path d="M25.8973 27.4C26.1243 27.6333 26.3837 27.75 26.6756 27.75C26.9675 27.75 27.2432 27.6167 27.5027 27.35C27.7297 27.1167 27.8513 26.8333 27.8675 26.5C27.8837 26.1667 27.7621 25.8833 27.5027 25.65L20.5945 18.55V9.6C20.5945 9.3 20.4891 9.04167 20.2783 8.825C20.0675 8.60833 19.8 8.5 19.4756 8.5C19.1513 8.5 18.8918 8.60833 18.6973 8.825C18.5027 9.04167 18.4054 9.31667 18.4054 9.65V18.9C18.4054 19.1 18.4378 19.275 18.5027 19.425C18.5675 19.575 18.6648 19.7333 18.7945 19.9L25.8973 27.4ZM19.3783 38C16.8486 38 14.4567 37.5 12.2027 36.5C9.9486 35.5 7.98644 34.1417 6.31617 32.425C4.6459 30.7083 3.32428 28.6917 2.35131 26.375C1.37833 24.0583 0.891846 21.6 0.891846 19C0.891846 16.4 1.37833 13.9417 2.35131 11.625C3.32428 9.30833 4.6459 7.29167 6.31617 5.575C7.98644 3.85833 9.9486 2.5 12.2027 1.5C14.4567 0.5 16.8486 0 19.3783 0C21.9081 0 24.3 0.5 26.554 1.5C28.8081 2.5 30.7702 3.85833 32.4405 5.575C34.1108 7.29167 35.4324 9.30833 36.4054 11.625C37.3783 13.9417 37.8648 16.4 37.8648 19C37.8648 21.6 37.3783 24.0583 36.4054 26.375C35.4324 28.6917 34.1108 30.7083 32.4405 32.425C30.7702 34.1417 28.8081 35.5 26.554 36.5C24.3 37.5 21.9081 38 19.3783 38ZM19.3783 35.75C23.854 35.75 27.6891 34.1083 30.8837 30.825C34.0783 27.5417 35.6756 23.6 35.6756 19C35.6756 14.4 34.0783 10.4583 30.8837 7.175C27.6891 3.89167 23.854 2.25 19.3783 2.25C14.9027 2.25 11.0675 3.89167 7.87293 7.175C4.67833 10.4583 3.08103 14.4 3.08103 19C3.08103 23.6 4.67833 27.5417 7.87293 30.825C11.0675 34.1083 14.9027 35.75 19.3783 35.75Z" fill="#244454"/>
</svg>
