<svg width="47" height="48" viewBox="0 0 47 48" fill="none" xmlns="http://www.w3.org/2000/svg">
<path d="M29.8973 32.4C30.1243 32.6333 30.3837 32.75 30.6756 32.75C30.9675 32.75 31.2432 32.6167 31.5027 32.35C31.7297 32.1167 31.8513 31.8333 31.8675 31.5C31.8837 31.1667 31.7621 30.8833 31.5027 30.65L24.5945 23.55V14.6C24.5945 14.3 24.4891 14.0417 24.2783 13.825C24.0675 13.6083 23.8 13.5 23.4756 13.5C23.1513 13.5 22.8918 13.6083 22.6973 13.825C22.5027 14.0417 22.4054 14.3167 22.4054 14.65V23.9C22.4054 24.1 22.4378 24.275 22.5027 24.425C22.5675 24.575 22.6648 24.7333 22.7945 24.9L29.8973 32.4ZM23.3783 43C20.8486 43 18.4567 42.5 16.2027 41.5C13.9486 40.5 11.9864 39.1417 10.3162 37.425C8.6459 35.7083 7.32428 33.6917 6.35131 31.375C5.37833 29.0583 4.89185 26.6 4.89185 24C4.89185 21.4 5.37833 18.9417 6.35131 16.625C7.32428 14.3083 8.6459 12.2917 10.3162 10.575C11.9864 8.85833 13.9486 7.5 16.2027 6.5C18.4567 5.5 20.8486 5 23.3783 5C25.9081 5 28.3 5.5 30.554 6.5C32.8081 7.5 34.7702 8.85833 36.4405 10.575C38.1108 12.2917 39.4324 14.3083 40.4054 16.625C41.3783 18.9417 41.8648 21.4 41.8648 24C41.8648 26.6 41.3783 29.0583 40.4054 31.375C39.4324 33.6917 38.1108 35.7083 36.4405 37.425C34.7702 39.1417 32.8081 40.5 30.554 41.5C28.3 42.5 25.9081 43 23.3783 43ZM23.3783 40.75C27.854 40.75 31.6891 39.1083 34.8837 35.825C38.0783 32.5417 39.6756 28.6 39.6756 24C39.6756 19.4 38.0783 15.4583 34.8837 12.175C31.6891 8.89167 27.854 7.25 23.3783 7.25C18.9027 7.25 15.0675 8.89167 11.8729 12.175C8.67833 15.4583 7.08103 19.4 7.08103 24C7.08103 28.6 8.67833 32.5417 11.8729 35.825C15.0675 39.1083 18.9027 40.75 23.3783 40.75Z" fill="#244454"/>
</svg>
