<svg width="27" height="42" viewBox="0 0 27 42" fill="none" xmlns="http://www.w3.org/2000/svg">
<path d="M3.55136 42C2.77298 42 2.10811 41.7167 1.55676 41.15C1.00541 40.5833 0.729736 39.9 0.729736 39.1V2.9C0.729736 2.1 1.00541 1.41667 1.55676 0.85C2.10811 0.283333 2.77298 0 3.55136 0H23.2054C23.9838 0 24.6487 0.283333 25.2 0.85C25.7514 1.41667 26.027 2.1 26.027 2.9V39.1C26.027 39.9 25.7514 40.5833 25.2 41.15C24.6487 41.7167 23.9838 42 23.2054 42H3.55136ZM2.91893 34.35V39.1C2.91893 39.2667 2.98379 39.4167 3.11352 39.55C3.24325 39.6833 3.3892 39.75 3.55136 39.75H23.2054C23.3676 39.75 23.5135 39.6833 23.6432 39.55C23.773 39.4167 23.8378 39.2667 23.8378 39.1V34.35H2.91893ZM13.3784 38.45C13.7676 38.45 14.0919 38.3167 14.3514 38.05C14.6108 37.7833 14.7405 37.45 14.7405 37.05C14.7405 36.65 14.6027 36.3167 14.327 36.05C14.0514 35.7833 13.7351 35.65 13.3784 35.65C12.9892 35.65 12.6649 35.7833 12.4054 36.05C12.146 36.3167 12.0162 36.65 12.0162 37.05C12.0162 37.45 12.1541 37.7833 12.4297 38.05C12.7054 38.3167 13.0216 38.45 13.3784 38.45ZM2.91893 32.1H23.8378V6.65H2.91893V32.1ZM2.91893 4.4H23.8378V2.9C23.8378 2.73333 23.773 2.58333 23.6432 2.45C23.5135 2.31667 23.3676 2.25 23.2054 2.25H3.55136C3.3892 2.25 3.24325 2.31667 3.11352 2.45C2.98379 2.58333 2.91893 2.73333 2.91893 2.9V4.4ZM2.91893 34.35V39.75V39.1V34.35ZM2.91893 4.4V2.25V4.4Z" fill="#244454"/>
</svg>
