<svg width="47" height="48" viewBox="0 0 47 48" fill="none" xmlns="http://www.w3.org/2000/svg">
<path d="M13.5514 45C12.773 45 12.1081 44.7167 11.5568 44.15C11.0054 43.5833 10.7297 42.9 10.7297 42.1V5.9C10.7297 5.1 11.0054 4.41667 11.5568 3.85C12.1081 3.28333 12.773 3 13.5514 3H33.2054C33.9838 3 34.6487 3.28333 35.2 3.85C35.7514 4.41667 36.027 5.1 36.027 5.9V42.1C36.027 42.9 35.7514 43.5833 35.2 44.15C34.6487 44.7167 33.9838 45 33.2054 45H13.5514ZM12.9189 37.35V42.1C12.9189 42.2667 12.9838 42.4167 13.1135 42.55C13.2432 42.6833 13.3892 42.75 13.5514 42.75H33.2054C33.3676 42.75 33.5135 42.6833 33.6432 42.55C33.773 42.4167 33.8378 42.2667 33.8378 42.1V37.35H12.9189ZM23.3784 41.45C23.7676 41.45 24.0919 41.3167 24.3514 41.05C24.6108 40.7833 24.7405 40.45 24.7405 40.05C24.7405 39.65 24.6027 39.3167 24.327 39.05C24.0514 38.7833 23.7351 38.65 23.3784 38.65C22.9892 38.65 22.6649 38.7833 22.4054 39.05C22.146 39.3167 22.0162 39.65 22.0162 40.05C22.0162 40.45 22.1541 40.7833 22.4297 41.05C22.7054 41.3167 23.0216 41.45 23.3784 41.45ZM12.9189 35.1H33.8378V9.65H12.9189V35.1ZM12.9189 7.4H33.8378V5.9C33.8378 5.73333 33.773 5.58333 33.6432 5.45C33.5135 5.31667 33.3676 5.25 33.2054 5.25H13.5514C13.3892 5.25 13.2432 5.31667 13.1135 5.45C12.9838 5.58333 12.9189 5.73333 12.9189 5.9V7.4ZM12.9189 37.35V42.75V42.1V37.35ZM12.9189 7.4V5.25V7.4V7.4Z" fill="#244454"/>
</svg>
