<svg width="40" height="40" viewBox="0 0 40 40" fill="none" xmlns="http://www.w3.org/2000/svg">
<path d="M35.7143 0H4.28571C1.91964 0 0 1.91964 0 4.28571V35.7143C0 38.0804 1.91964 40 4.28571 40H35.7143C38.0804 40 40 38.0804 40 35.7143V4.28571C40 1.91964 38.0804 0 35.7143 0ZM31.3482 14.1786C31.3661 14.4286 31.3661 14.6875 31.3661 14.9375C31.3661 22.6786 25.4732 31.5982 14.7054 31.5982C11.3839 31.5982 8.30357 30.6339 5.71429 28.9732C6.1875 29.0268 6.64286 29.0446 7.125 29.0446C9.86607 29.0446 12.3839 28.1161 14.3929 26.5446C11.8214 26.4911 9.66072 24.8036 8.91964 22.4821C9.82143 22.6161 10.6339 22.6161 11.5625 22.375C8.88393 21.8304 6.875 19.4732 6.875 16.625V16.5536C7.65179 16.9911 8.5625 17.2589 9.51786 17.2946C8.71467 16.7604 8.05623 16.0356 7.60131 15.185C7.14639 14.3343 6.90914 13.3843 6.91071 12.4196C6.91071 11.3304 7.19643 10.3304 7.70536 9.46429C10.5893 13.0179 14.9196 15.3393 19.7768 15.5893C18.9464 11.6161 21.9196 8.39286 25.4911 8.39286C27.1786 8.39286 28.6964 9.09821 29.7679 10.2411C31.0893 9.99107 32.3571 9.5 33.4821 8.83036C33.0446 10.1875 32.125 11.3304 30.9107 12.0536C32.0893 11.9286 33.2321 11.5982 34.2857 11.1429C33.4911 12.3125 32.4911 13.3482 31.3482 14.1786Z" fill="#6AACC4"/>
</svg>
