<svg width="40" height="40" viewBox="0 0 40 40" fill="none" xmlns="http://www.w3.org/2000/svg">
<path d="M20 8.10714C13.5089 8.10714 8.23214 13.3839 8.22321 19.875C8.22321 22.0982 8.84822 24.2679 10.0268 26.1339L10.3036 26.5804L9.11607 30.9196L13.5714 29.75L14 30.0089C15.8036 31.0804 17.875 31.6518 19.9911 31.6518H20C26.4821 31.6518 31.9018 26.375 31.9018 19.8839C31.9018 16.7411 30.5446 13.7857 28.3214 11.5625C26.0893 9.33036 23.1429 8.10714 20 8.10714ZM26.9196 24.9286C26.625 25.7589 25.2143 26.5089 24.5357 26.6071C23.4107 26.7768 22.5357 26.6875 20.2946 25.7232C16.75 24.1875 14.4286 20.6161 14.25 20.3839C14.0714 20.1518 12.8036 18.4643 12.8036 16.7232C12.8036 14.9821 13.7143 14.125 14.0446 13.7679C14.3661 13.4107 14.75 13.3214 14.9911 13.3214C15.2232 13.3214 15.4643 13.3214 15.6696 13.3304C15.8839 13.3393 16.1786 13.25 16.4643 13.9375C16.7589 14.6429 17.4643 16.3839 17.5536 16.5625C17.6429 16.7411 17.7054 16.9464 17.5804 17.1786C16.9018 18.5357 16.1786 18.4821 16.5446 19.1071C17.9107 21.4554 19.2768 22.2679 21.3571 23.3125C21.7143 23.4911 21.9196 23.4643 22.125 23.2232C22.3304 22.9911 23.0089 22.1875 23.2411 21.8393C23.4732 21.4821 23.7143 21.5446 24.0357 21.6607C24.3571 21.7768 26.0982 22.6339 26.4554 22.8125C26.8125 22.9911 27.0446 23.0804 27.1339 23.2232C27.2143 23.3929 27.2143 24.1071 26.9196 24.9286ZM35.7143 0H4.28571C1.91964 0 0 1.91964 0 4.28571V35.7143C0 38.0804 1.91964 40 4.28571 40H35.7143C38.0804 40 40 38.0804 40 35.7143V4.28571C40 1.91964 38.0804 0 35.7143 0ZM19.9911 34.0357C17.6161 34.0357 15.2857 33.4375 13.2232 32.3125L5.71429 34.2857L7.72321 26.9464C6.48214 24.8036 5.83036 22.3661 5.83036 19.8661C5.83929 12.0625 12.1875 5.71429 19.9911 5.71429C23.7768 5.71429 27.3304 7.1875 30.0089 9.86607C32.6786 12.5446 34.2857 16.0982 34.2857 19.8839C34.2857 27.6875 27.7946 34.0357 19.9911 34.0357Z" fill="#E08298"/>
</svg>
