<svg width="40" height="40" viewBox="0 0 40 40" fill="none" xmlns="http://www.w3.org/2000/svg">
<path d="M16.6786 15.1875L25.1786 20.0179L16.6786 24.8482V15.1875ZM40 4.28571V35.7143C40 38.0804 38.0804 40 35.7143 40H4.28571C1.91964 40 0 38.0804 0 35.7143V4.28571C0 1.91964 1.91964 0 4.28571 0H35.7143C38.0804 0 40 1.91964 40 4.28571ZM36.25 20.0268C36.25 20.0268 36.25 14.7054 35.5714 12.1518C35.1964 10.7411 34.0982 9.63393 32.6964 9.25893C30.1696 8.57143 20 8.57143 20 8.57143C20 8.57143 9.83036 8.57143 7.30357 9.25893C5.90179 9.63393 4.80357 10.7411 4.42857 12.1518C3.75 14.6964 3.75 20.0268 3.75 20.0268C3.75 20.0268 3.75 25.3482 4.42857 27.9018C4.80357 29.3125 5.90179 30.375 7.30357 30.75C9.83036 31.4286 20 31.4286 20 31.4286C20 31.4286 30.1696 31.4286 32.6964 30.7411C34.0982 30.3661 35.1964 29.3036 35.5714 27.8929C36.25 25.3482 36.25 20.0268 36.25 20.0268Z" fill="#6AACC4"/>
</svg>
